<?xml version="1.0" encoding="iso-8859-1"?>
<!-- Generator: Adobe Illustrator 19.0.0, SVG Export Plug-In . SVG Version: 6.00 Build 0)  -->
<svg version="1.1" id="Capa_1" xmlns="http://www.w3.org/2000/svg" xmlns:xlink="http://www.w3.org/1999/xlink" x="0px" y="0px"
	 viewBox="0 0 512 512" style="enable-background:new 0 0 512 512;" xml:space="preserve">
<g>
	<g>
		<path d="M503.467,76.798H290.133v17.067h204.8v375.467H17.067V93.865h204.8V76.798H8.533C3.823,76.798,0,80.621,0,85.332v392.542
			c0,4.719,3.823,8.533,8.533,8.533h494.933c4.719,0,8.533-3.823,8.533-8.542V85.332C512,80.621,508.186,76.798,503.467,76.798z"/>
	</g>
</g>
<g>
	<g>
		<path d="M218.453,223.572l-34.133-25.6c-1.476-1.109-3.277-1.707-5.12-1.707h-38.571l-5.965-7.458l-13.329,10.658l8.533,10.667
			c1.621,2.022,4.07,3.2,6.664,3.2h39.825l28.442,21.333v29.867h-34.133c-4.71,0-8.533,3.814-8.533,8.533v34.133H128
			c-4.71,0-8.533,3.814-8.533,8.533v13.534l-64-64v-60.467c0-4.71-3.823-8.533-8.533-8.533H17.067v-25.6H76.8v-17.067H8.533
			c-4.71,0-8.533,3.823-8.533,8.533v42.667c0,4.71,3.823,8.533,8.533,8.533H38.4v55.475c0,2.261,0.896,4.429,2.5,6.033
			l81.067,81.067c1.63,1.63,3.814,2.5,6.033,2.5c1.101,0,2.21-0.213,3.268-0.657c3.183-1.314,5.265-4.437,5.265-7.885v-25.6h34.133
			c4.71,0,8.533-3.814,8.533-8.533v-34.133h34.133c4.71,0,8.533-3.814,8.533-8.533v-42.667
			C221.867,227.71,220.604,225.176,218.453,223.572z"/>
	</g>
</g>
<g>
	<g>
		<path d="M213.333,341.34H128c-4.71,0-8.533,3.814-8.533,8.533v42.667c0,4.719,3.823,8.533,8.533,8.533h25.6v42.667
			c0,3.302,1.92,6.323,4.915,7.723c1.152,0.546,2.389,0.811,3.618,0.811c1.954,0,3.9-0.683,5.461-1.971l51.2-42.667
			c1.946-1.63,3.072-4.028,3.072-6.562v-51.2C221.867,345.155,218.044,341.34,213.333,341.34z M204.8,397.072l-34.133,28.45V392.54
			c0-4.719-3.823-8.533-8.533-8.533h-25.6v-25.6H204.8V397.072z"/>
	</g>
</g>
<g>
	<g>
		<path d="M451.072,319.905c-1.536-2.577-4.326-4.173-7.339-4.173h-28.86l-23.245-46.481l-15.266,7.637l25.6,51.2
			c1.451,2.893,4.403,4.719,7.637,4.719h19.755l-41.89,76.8h-46.131V341.34c0-4.719-3.814-8.533-8.533-8.533h-25.6v-51.2h25.6
			V264.54h-34.133c-4.719,0-8.533,3.814-8.533,8.533v68.267c0,4.719,3.814,8.533,8.533,8.533h25.6v68.267
			c0,4.719,3.814,8.533,8.533,8.533h59.733c3.123,0,5.999-1.715,7.492-4.463l51.2-93.867
			C452.668,325.707,452.608,322.499,451.072,319.905z"/>
	</g>
</g>
<g>
	<g>
		<path d="M298.667,85.332v39.134l-46.199,46.199h-30.601v-59.733c0-4.71-3.823-8.533-8.533-8.533H179.2V85.332h-17.067v25.6
			c0,4.71,3.823,8.533,8.533,8.533H204.8v59.733c0,4.71,3.823,8.533,8.533,8.533H256c2.27,0,4.437-0.896,6.033-2.5l51.2-51.2
			c1.604-1.596,2.5-3.772,2.5-6.033V85.332H298.667z"/>
	</g>
</g>
<g>
	<g>
		<path d="M465.067,115.198c-2.27,0-4.437,0.905-6.033,2.5l-18.833,18.833h-22.067v17.067h25.6c2.27,0,4.437-0.896,6.033-2.5
			l18.833-18.833h34.867v-17.067H465.067z"/>
	</g>
</g>
<g>
	<g>
		<path d="M369.434,156.099L335.3,190.232c-1.604,1.596-2.5,3.772-2.5,6.033v25.6h17.067v-22.067l31.633-31.633L369.434,156.099z"/>
	</g>
</g>
<g>
	<g>
		<path d="M440.977,273.065l-14.916-37.308c-1.306-3.234-4.437-5.359-7.927-5.359H384v17.067h28.356l14.916,37.308
			c1.306,3.243,4.437,5.367,7.927,5.367h68.267v-17.075H440.977z"/>
	</g>
</g>
<g>
	<g>
		<path d="M414.251,82.516c-6.477-3.746-13.85-5.717-21.222-5.717c-0.188-0.009-0.333-0.017-0.563,0
			c-11.366,0-22.059,4.42-30.106,12.442c-8.081,8.047-12.535,18.748-12.553,30.14c-0.017,7.782,2.099,15.428,6.127,22.118
			l29.85,50.569c1.527,2.603,4.326,4.198,7.347,4.198c0.017,0,0.034,0,0.06,0c3.029-0.017,5.828-1.647,7.339-4.284l29.338-51.183
			C441.626,120.429,434.628,94.275,414.251,82.516z M415.087,132.291l-22.059,38.477l-22.409-37.965
			c-0.017-0.026-0.034-0.051-0.051-0.077c-2.432-4.028-3.712-8.619-3.695-13.303c0.026-14.106,11.503-25.557,25.711-25.557
			c0.017,0,0.034,0,0.051,0.008c4.599,0.12,9.114,1.126,13.09,3.422C417.954,104.361,422.153,120.045,415.087,132.291z"/>
	</g>
</g>
<g>
	<g>
		<path d="M379.529,210.524c-6.391-3.695-13.679-5.675-20.984-5.717c-23.228-0.393-42.974,18.423-43.383,41.941
			c-0.128,8.021,1.988,15.889,6.135,22.758l29.747,50.56c1.536,2.603,4.335,4.207,7.356,4.207c0.017,0,0.034,0,0.06,0
			c3.038-0.017,5.837-1.647,7.347-4.292l29.346-51.174C406.912,248.429,399.906,222.283,379.529,210.524z M380.356,260.299
			l-22.059,38.451l-22.323-37.939c-0.026-0.034-0.043-0.068-0.06-0.094c-2.5-4.122-3.78-8.858-3.695-13.679
			c0.247-13.969,11.674-25.173,25.685-25.173c0.145,0,0.299,0,0.444,0.009c4.429,0.026,8.806,1.212,12.638,3.43
			C383.215,232.361,387.422,248.045,380.356,260.299z"/>
	</g>
</g>
<g>
	<g>
		<path d="M152.721,142.556c-2.953-11.008-10.01-20.215-19.883-25.907c-6.528-3.772-13.943-5.726-21.393-5.717
			c-11.418-0.222-22.144,4.241-30.285,12.22c-8.141,7.979-12.681,18.654-12.783,30.046c-0.068,7.91,2.048,15.676,6.135,22.443
			l29.841,50.56c1.536,2.603,4.326,4.198,7.347,4.198c0.017,0,0.034,0,0.068,0c3.038-0.017,5.837-1.647,7.347-4.284l29.338-51.183
			C154.155,165.067,155.674,153.564,152.721,142.556z M133.641,166.424l-22.059,38.477l-22.409-37.965
			c-0.017-0.026-0.034-0.051-0.043-0.077c-2.458-4.079-3.738-8.747-3.695-13.5c0.128-14.037,11.588-25.361,25.711-25.361
			c0.085,0,0.162,0,0.239,0.009c4.617,0.06,8.986,1.161,12.902,3.43c5.922,3.413,10.155,8.934,11.93,15.539
			C137.984,153.581,137.071,160.485,133.641,166.424z"/>
	</g>
</g>
<g>
	<g>
		<rect x="102.4" y="145.065" width="17.067" height="17.067"/>
	</g>
</g>
<g>
	<g>
		<rect x="384" y="110.932" width="17.067" height="17.067"/>
	</g>
</g>
<g>
	<g>
		<rect x="349.867" y="238.932" width="17.067" height="17.067"/>
	</g>
</g>
<g>
	<g>
		<path d="M297.011,57.223c-2.953-11.008-10.018-20.215-19.883-25.907c-6.391-3.695-13.679-5.675-20.983-5.717
			c-11.401-0.179-22.187,4.07-30.379,11.989s-12.817,18.56-13.005,29.952c-0.128,8.021,1.988,15.889,6.127,22.758l29.756,50.56
			c1.536,2.603,4.335,4.207,7.356,4.207c0.017,0,0.034,0,0.06,0c3.038-0.017,5.837-1.647,7.347-4.284l29.346-51.183
			C298.453,79.725,299.964,68.231,297.011,57.223z M277.956,81.082l-22.05,38.46l-22.332-37.939
			c-0.017-0.026-0.034-0.06-0.051-0.085c-2.5-4.13-3.78-8.858-3.695-13.687c0.239-13.961,11.674-25.165,25.677-25.165
			c0.145,0,0.299,0,0.444,0c4.437,0.034,8.806,1.212,12.646,3.43c5.922,3.413,10.155,8.934,11.93,15.539
			C282.291,68.248,281.378,75.143,277.956,81.082z"/>
	</g>
</g>
<g>
	<g>
		<rect x="246.869" y="59.732" width="17.067" height="17.067"/>
	</g>
</g>
<g>
</g>
<g>
</g>
<g>
</g>
<g>
</g>
<g>
</g>
<g>
</g>
<g>
</g>
<g>
</g>
<g>
</g>
<g>
</g>
<g>
</g>
<g>
</g>
<g>
</g>
<g>
</g>
<g>
</g>
</svg>
